<svg aria-roledescription="er" viewBox="0 0 1279.3580322265625 686" style="max-width: 1279.36px; background-color: white;" xmlns:xlink="http://www.w3.org/1999/xlink" xmlns="http://www.w3.org/2000/svg" width="100%" id="mermaid-0"><style>#mermaid-0{font-family:"trebuchet ms",verdana,arial,sans-serif;font-size:16px;fill:#000000;}#mermaid-0 .error-icon{fill:#552222;}#mermaid-0 .error-text{fill:#552222;stroke:#552222;}#mermaid-0 .edge-thickness-normal{stroke-width:2px;}#mermaid-0 .edge-thickness-thick{stroke-width:3.5px;}#mermaid-0 .edge-pattern-solid{stroke-dasharray:0;}#mermaid-0 .edge-pattern-dashed{stroke-dasharray:3;}#mermaid-0 .edge-pattern-dotted{stroke-dasharray:2;}#mermaid-0 .marker{fill:#000000;stroke:#000000;}#mermaid-0 .marker.cross{stroke:#000000;}#mermaid-0 svg{font-family:"trebuchet ms",verdana,arial,sans-serif;font-size:16px;}#mermaid-0 .entityBox{fill:#cde498;stroke:#13540c;}#mermaid-0 .attributeBoxOdd{fill:#ffffff;stroke:#13540c;}#mermaid-0 .attributeBoxEven{fill:#f2f2f2;stroke:#13540c;}#mermaid-0 .relationshipLabelBox{fill:hsl(78.1578947368, 58.4615384615%, 84.5098039216%);opacity:0.7;background-color:hsl(78.1578947368, 58.4615384615%, 84.5098039216%);}#mermaid-0 .relationshipLabelBox rect{opacity:0.5;}#mermaid-0 .relationshipLine{stroke:#000000;}#mermaid-0 .entityTitleText{text-anchor:middle;font-size:18px;fill:#000000;}#mermaid-0 :root{--mermaid-font-family:"trebuchet ms",verdana,arial,sans-serif;}</style><g/><defs><marker orient="auto" markerHeight="18" markerWidth="18" refY="9" refX="0" id="ONLY_ONE_START"><path d="M9,0 L9,18 M15,0 L15,18" fill="none" stroke="gray"/></marker></defs><defs><marker orient="auto" markerHeight="18" markerWidth="18" refY="9" refX="18" id="ONLY_ONE_END"><path d="M3,0 L3,18 M9,0 L9,18" fill="none" stroke="gray"/></marker></defs><defs><marker orient="auto" markerHeight="18" markerWidth="30" refY="9" refX="0" id="ZERO_OR_ONE_START"><circle r="6" cy="9" cx="21" fill="white" stroke="gray"/><path d="M9,0 L9,18" fill="none" stroke="gray"/></marker></defs><defs><marker orient="auto" markerHeight="18" markerWidth="30" refY="9" refX="30" id="ZERO_OR_ONE_END"><circle r="6" cy="9" cx="9" fill="white" stroke="gray"/><path d="M21,0 L21,18" fill="none" stroke="gray"/></marker></defs><defs><marker orient="auto" markerHeight="36" markerWidth="45" refY="18" refX="18" id="ONE_OR_MORE_START"><path d="M0,18 Q 18,0 36,18 Q 18,36 0,18 M42,9 L42,27" fill="none" stroke="gray"/></marker></defs><defs><marker orient="auto" markerHeight="36" markerWidth="45" refY="18" refX="27" id="ONE_OR_MORE_END"><path d="M3,9 L3,27 M9,18 Q27,0 45,18 Q27,36 9,18" fill="none" stroke="gray"/></marker></defs><defs><marker orient="auto" markerHeight="36" markerWidth="57" refY="18" refX="18" id="ZERO_OR_MORE_START"><circle r="6" cy="18" cx="48" fill="white" stroke="gray"/><path d="M0,18 Q18,0 36,18 Q18,36 0,18" fill="none" stroke="gray"/></marker></defs><defs><marker orient="auto" markerHeight="36" markerWidth="57" refY="18" refX="39" id="ZERO_OR_MORE_END"><circle r="6" cy="18" cx="9" fill="white" stroke="gray"/><path d="M21,18 Q39,0 57,18 Q39,36 21,18" fill="none" stroke="gray"/></marker></defs><path style="stroke: gray; fill: none;" marker-start="url(#ZERO_OR_MORE_START)" marker-end="url(#ONLY_ONE_END)" d="M260.0787658691406,140.894194021286L236.91806284586588,155.07849501773833C213.75735982259116,169.26279601419068,167.43595377604166,197.63139800709533,144.27525075276694,220.149032336881C121.11454772949219,242.66666666666666,121.11454772949219,259.3333333333333,121.11454772949219,267.6666666666667L121.11454772949219,276" class="er relationshipLine"/><path style="stroke: gray; fill: none;" marker-start="url(#ZERO_OR_MORE_START)" marker-end="url(#ONLY_ONE_END)" d="M316.5227642059326,154L313.6094675064087,166C310.69617080688477,178,304.8695774078369,202,301.956280708313,237.16666666666666C299.04298400878906,272.3333333333333,299.04298400878906,318.6666666666667,299.04298400878906,365C299.04298400878906,411.3333333333333,299.04298400878906,457.6666666666667,369.74796803792316,495.850350169632C440.4529520670573,534.0340336725973,581.8629201253256,564.0680673451947,652.5679041544596,579.0850841814932L723.2728881835938,594.1021010177919" class="er relationshipLine"/><path style="stroke: gray; fill: none;" marker-start="url(#ZERO_OR_MORE_START)" marker-end="url(#ONLY_ONE_END)" d="M390.91499423980713,154L403.94288969039917,166C416.9707851409912,178,443.0265760421753,202,456.05447149276733,226C469.0823669433594,250,469.0823669433594,274,469.0823669433594,286L469.0823669433594,298" class="er relationshipLine"/><path style="stroke: gray; fill: none;" marker-start="url(#ZERO_OR_MORE_START)" marker-end="url(#ONLY_ONE_END)" d="M469.0823669433594,432L469.0823669433594,444C469.0823669433594,456,469.0823669433594,480,511.44745381673175,505.6477585811631C553.8125406901041,531.2955171623263,638.542714436849,558.5910343246525,680.9078013102213,572.2387929058156L723.2728881835938,585.8865514869788" class="er relationshipLine"/><path style="stroke: gray; fill: none;" marker-start="url(#ZERO_OR_MORE_START)" marker-end="url(#ONLY_ONE_END)" d="M709.1611328125,421L709.1611328125,434.8333333333333C709.1611328125,448.6666666666667,709.1611328125,476.3333333333333,716.155175119076,498.5C723.1492174256523,520.6666666666666,737.1373020388046,537.3333333333334,744.1313443453806,545.6666666666666L751.1253866519568,554" class="er relationshipLine"/><path style="stroke: gray; fill: none;" marker-start="url(#ZERO_OR_MORE_START)" marker-end="url(#ONLY_ONE_END)" d="M949.2398986816406,421L949.2398986816406,434.8333333333333C949.2398986816406,448.6666666666667,949.2398986816406,476.3333333333333,936.529551188151,499.08239883509873C923.8192036946615,521.8314643368641,898.3985087076823,539.6629286737283,885.6881612141927,548.5786608421603L872.9778137207031,557.4943930105924" class="er relationshipLine"/><path style="stroke: gray; fill: none;" marker-start="url(#ZERO_OR_ONE_START)" marker-end="url(#ONLY_ONE_END)" d="M1189.3186645507812,432L1189.3186645507812,444C1189.3186645507812,456,1189.3186645507812,480,1136.5951894124348,506.2862573832199C1083.8717142740886,532.5725147664398,978.4247639973959,561.1450295328794,925.7012888590494,575.4312869160993L872.9778137207031,589.7175442993192" class="er relationshipLine"/><g transform="translate(20,20 )" id="entity-users-79df5cca-c74d-41c6-a439-ad2bd22c8e21"><rect height="156" width="140.07876586914062" y="0" x="0" class="er entityBox"/><text style="dominant-baseline: middle; text-anchor: middle; font-size: 12px;" transform="translate(70.03938293457031,12)" y="0" x="0" id="text-entity-users-79df5cca-c74d-41c6-a439-ad2bd22c8e21" class="er entityLabel">users</text><rect height="22" width="54.095550537109375" y="24" x="0" class="er attributeBoxOdd"/><text style="dominant-baseline: middle; font-size: 10.2px;" transform="translate(5,35)" y="0" x="0" id="text-entity-users-79df5cca-c74d-41c6-a439-ad2bd22c8e21-attr-1-type" class="er entityLabel">String</text><rect height="22" width="63.2955322265625" y="24" x="54.095550537109375" class="er attributeBoxOdd"/><text style="dominant-baseline: middle; font-size: 10.2px;" transform="translate(59.095550537109375,35)" y="0" x="0" id="text-entity-users-79df5cca-c74d-41c6-a439-ad2bd22c8e21-attr-1-name" class="er entityLabel">id</text><rect height="22" width="22.68768310546875" y="24" x="117.39108276367188" class="er attributeBoxOdd"/><text style="dominant-baseline: middle; font-size: 10.2px;" transform="translate(122.39108276367188,35)" y="0" x="0" id="text-entity-users-79df5cca-c74d-41c6-a439-ad2bd22c8e21-attr-1-key" class="er entityLabel">PK</text><rect height="22" width="54.095550537109375" y="46" x="0" class="er attributeBoxEven"/><text style="dominant-baseline: middle; font-size: 10.2px;" transform="translate(5,57)" y="0" x="0" id="text-entity-users-79df5cca-c74d-41c6-a439-ad2bd22c8e21-attr-2-type" class="er entityLabel">String</text><rect height="22" width="63.2955322265625" y="46" x="54.095550537109375" class="er attributeBoxEven"/><text style="dominant-baseline: middle; font-size: 10.2px;" transform="translate(59.095550537109375,57)" y="0" x="0" id="text-entity-users-79df5cca-c74d-41c6-a439-ad2bd22c8e21-attr-2-name" class="er entityLabel">username</text><rect height="22" width="22.68768310546875" y="46" x="117.39108276367188" class="er attributeBoxEven"/><text style="dominant-baseline: middle; font-size: 10.2px;" transform="translate(122.39108276367188,57)" y="0" x="0" id="text-entity-users-79df5cca-c74d-41c6-a439-ad2bd22c8e21-attr-2-key" class="er entityLabel"/><rect height="22" width="54.095550537109375" y="68" x="0" class="er attributeBoxOdd"/><text style="dominant-baseline: middle; font-size: 10.2px;" transform="translate(5,79)" y="0" x="0" id="text-entity-users-79df5cca-c74d-41c6-a439-ad2bd22c8e21-attr-3-type" class="er entityLabel">String</text><rect height="22" width="63.2955322265625" y="68" x="54.095550537109375" class="er attributeBoxOdd"/><text style="dominant-baseline: middle; font-size: 10.2px;" transform="translate(59.095550537109375,79)" y="0" x="0" id="text-entity-users-79df5cca-c74d-41c6-a439-ad2bd22c8e21-attr-3-name" class="er entityLabel">password</text><rect height="22" width="22.68768310546875" y="68" x="117.39108276367188" class="er attributeBoxOdd"/><text style="dominant-baseline: middle; font-size: 10.2px;" transform="translate(122.39108276367188,79)" y="0" x="0" id="text-entity-users-79df5cca-c74d-41c6-a439-ad2bd22c8e21-attr-3-key" class="er entityLabel"/><rect height="22" width="54.095550537109375" y="90" x="0" class="er attributeBoxEven"/><text style="dominant-baseline: middle; font-size: 10.2px;" transform="translate(5,101)" y="0" x="0" id="text-entity-users-79df5cca-c74d-41c6-a439-ad2bd22c8e21-attr-4-type" class="er entityLabel">Boolean</text><rect height="22" width="63.2955322265625" y="90" x="54.095550537109375" class="er attributeBoxEven"/><text style="dominant-baseline: middle; font-size: 10.2px;" transform="translate(59.095550537109375,101)" y="0" x="0" id="text-entity-users-79df5cca-c74d-41c6-a439-ad2bd22c8e21-attr-4-name" class="er entityLabel">is_admin</text><rect height="22" width="22.68768310546875" y="90" x="117.39108276367188" class="er attributeBoxEven"/><text style="dominant-baseline: middle; font-size: 10.2px;" transform="translate(122.39108276367188,101)" y="0" x="0" id="text-entity-users-79df5cca-c74d-41c6-a439-ad2bd22c8e21-attr-4-key" class="er entityLabel"/><rect height="22" width="54.095550537109375" y="112" x="0" class="er attributeBoxOdd"/><text style="dominant-baseline: middle; font-size: 10.2px;" transform="translate(5,123)" y="0" x="0" id="text-entity-users-79df5cca-c74d-41c6-a439-ad2bd22c8e21-attr-5-type" class="er entityLabel">DateTime</text><rect height="22" width="63.2955322265625" y="112" x="54.095550537109375" class="er attributeBoxOdd"/><text style="dominant-baseline: middle; font-size: 10.2px;" transform="translate(59.095550537109375,123)" y="0" x="0" id="text-entity-users-79df5cca-c74d-41c6-a439-ad2bd22c8e21-attr-5-name" class="er entityLabel">created_at</text><rect height="22" width="22.68768310546875" y="112" x="117.39108276367188" class="er attributeBoxOdd"/><text style="dominant-baseline: middle; font-size: 10.2px;" transform="translate(122.39108276367188,123)" y="0" x="0" id="text-entity-users-79df5cca-c74d-41c6-a439-ad2bd22c8e21-attr-5-key" class="er entityLabel"/><rect height="22" width="54.095550537109375" y="134" x="0" class="er attributeBoxEven"/><text style="dominant-baseline: middle; font-size: 10.2px;" transform="translate(5,145)" y="0" x="0" id="text-entity-users-79df5cca-c74d-41c6-a439-ad2bd22c8e21-attr-6-type" class="er entityLabel">DateTime</text><rect height="22" width="63.2955322265625" y="134" x="54.095550537109375" class="er attributeBoxEven"/><text style="dominant-baseline: middle; font-size: 10.2px;" transform="translate(59.095550537109375,145)" y="0" x="0" id="text-entity-users-79df5cca-c74d-41c6-a439-ad2bd22c8e21-attr-6-name" class="er entityLabel">updated_at</text><rect height="22" width="22.68768310546875" y="134" x="117.39108276367188" class="er attributeBoxEven"/><text style="dominant-baseline: middle; font-size: 10.2px;" transform="translate(122.39108276367188,145)" y="0" x="0" id="text-entity-users-79df5cca-c74d-41c6-a439-ad2bd22c8e21-attr-6-key" class="er entityLabel"/></g><g transform="translate(43.18611145019531,276 )" id="entity-commomusers-f3cd74a3-9bd5-4600-90de-46c8334b2f94"><rect height="178" width="155.85687255859375" y="0" x="0" class="er entityBox"/><text style="dominant-baseline: middle; text-anchor: middle; font-size: 12px;" transform="translate(77.92843627929688,12)" y="0" x="0" id="text-entity-commomusers-f3cd74a3-9bd5-4600-90de-46c8334b2f94" class="er entityLabel">commom-users</text><rect height="22" width="54.095550537109375" y="24" x="0" class="er attributeBoxOdd"/><text style="dominant-baseline: middle; font-size: 10.2px;" transform="translate(5,35)" y="0" x="0" id="text-entity-commomusers-f3cd74a3-9bd5-4600-90de-46c8334b2f94-attr-1-type" class="er entityLabel">String</text><rect height="22" width="79.07363891601562" y="24" x="54.095550537109375" class="er attributeBoxOdd"/><text style="dominant-baseline: middle; font-size: 10.2px;" transform="translate(59.095550537109375,35)" y="0" x="0" id="text-entity-commomusers-f3cd74a3-9bd5-4600-90de-46c8334b2f94-attr-1-name" class="er entityLabel">id</text><rect height="22" width="22.68768310546875" y="24" x="133.169189453125" class="er attributeBoxOdd"/><text style="dominant-baseline: middle; font-size: 10.2px;" transform="translate(138.169189453125,35)" y="0" x="0" id="text-entity-commomusers-f3cd74a3-9bd5-4600-90de-46c8334b2f94-attr-1-key" class="er entityLabel">PK</text><rect height="22" width="54.095550537109375" y="46" x="0" class="er attributeBoxEven"/><text style="dominant-baseline: middle; font-size: 10.2px;" transform="translate(5,57)" y="0" x="0" id="text-entity-commomusers-f3cd74a3-9bd5-4600-90de-46c8334b2f94-attr-2-type" class="er entityLabel">String</text><rect height="22" width="79.07363891601562" y="46" x="54.095550537109375" class="er attributeBoxEven"/><text style="dominant-baseline: middle; font-size: 10.2px;" transform="translate(59.095550537109375,57)" y="0" x="0" id="text-entity-commomusers-f3cd74a3-9bd5-4600-90de-46c8334b2f94-attr-2-name" class="er entityLabel">cpf</text><rect height="22" width="22.68768310546875" y="46" x="133.169189453125" class="er attributeBoxEven"/><text style="dominant-baseline: middle; font-size: 10.2px;" transform="translate(138.169189453125,57)" y="0" x="0" id="text-entity-commomusers-f3cd74a3-9bd5-4600-90de-46c8334b2f94-attr-2-key" class="er entityLabel"/><rect height="22" width="54.095550537109375" y="68" x="0" class="er attributeBoxOdd"/><text style="dominant-baseline: middle; font-size: 10.2px;" transform="translate(5,79)" y="0" x="0" id="text-entity-commomusers-f3cd74a3-9bd5-4600-90de-46c8334b2f94-attr-3-type" class="er entityLabel">String</text><rect height="22" width="79.07363891601562" y="68" x="54.095550537109375" class="er attributeBoxOdd"/><text style="dominant-baseline: middle; font-size: 10.2px;" transform="translate(59.095550537109375,79)" y="0" x="0" id="text-entity-commomusers-f3cd74a3-9bd5-4600-90de-46c8334b2f94-attr-3-name" class="er entityLabel">name</text><rect height="22" width="22.68768310546875" y="68" x="133.169189453125" class="er attributeBoxOdd"/><text style="dominant-baseline: middle; font-size: 10.2px;" transform="translate(138.169189453125,79)" y="0" x="0" id="text-entity-commomusers-f3cd74a3-9bd5-4600-90de-46c8334b2f94-attr-3-key" class="er entityLabel"/><rect height="22" width="54.095550537109375" y="90" x="0" class="er attributeBoxEven"/><text style="dominant-baseline: middle; font-size: 10.2px;" transform="translate(5,101)" y="0" x="0" id="text-entity-commomusers-f3cd74a3-9bd5-4600-90de-46c8334b2f94-attr-4-type" class="er entityLabel">String</text><rect height="22" width="79.07363891601562" y="90" x="54.095550537109375" class="er attributeBoxEven"/><text style="dominant-baseline: middle; font-size: 10.2px;" transform="translate(59.095550537109375,101)" y="0" x="0" id="text-entity-commomusers-f3cd74a3-9bd5-4600-90de-46c8334b2f94-attr-4-name" class="er entityLabel">phone_number</text><rect height="22" width="22.68768310546875" y="90" x="133.169189453125" class="er attributeBoxEven"/><text style="dominant-baseline: middle; font-size: 10.2px;" transform="translate(138.169189453125,101)" y="0" x="0" id="text-entity-commomusers-f3cd74a3-9bd5-4600-90de-46c8334b2f94-attr-4-key" class="er entityLabel"/><rect height="22" width="54.095550537109375" y="112" x="0" class="er attributeBoxOdd"/><text style="dominant-baseline: middle; font-size: 10.2px;" transform="translate(5,123)" y="0" x="0" id="text-entity-commomusers-f3cd74a3-9bd5-4600-90de-46c8334b2f94-attr-5-type" class="er entityLabel">DateTime</text><rect height="22" width="79.07363891601562" y="112" x="54.095550537109375" class="er attributeBoxOdd"/><text style="dominant-baseline: middle; font-size: 10.2px;" transform="translate(59.095550537109375,123)" y="0" x="0" id="text-entity-commomusers-f3cd74a3-9bd5-4600-90de-46c8334b2f94-attr-5-name" class="er entityLabel">date_birth</text><rect height="22" width="22.68768310546875" y="112" x="133.169189453125" class="er attributeBoxOdd"/><text style="dominant-baseline: middle; font-size: 10.2px;" transform="translate(138.169189453125,123)" y="0" x="0" id="text-entity-commomusers-f3cd74a3-9bd5-4600-90de-46c8334b2f94-attr-5-key" class="er entityLabel"/><rect height="22" width="54.095550537109375" y="134" x="0" class="er attributeBoxEven"/><text style="dominant-baseline: middle; font-size: 10.2px;" transform="translate(5,145)" y="0" x="0" id="text-entity-commomusers-f3cd74a3-9bd5-4600-90de-46c8334b2f94-attr-6-type" class="er entityLabel">DateTime</text><rect height="22" width="79.07363891601562" y="134" x="54.095550537109375" class="er attributeBoxEven"/><text style="dominant-baseline: middle; font-size: 10.2px;" transform="translate(59.095550537109375,145)" y="0" x="0" id="text-entity-commomusers-f3cd74a3-9bd5-4600-90de-46c8334b2f94-attr-6-name" class="er entityLabel">created_at</text><rect height="22" width="22.68768310546875" y="134" x="133.169189453125" class="er attributeBoxEven"/><text style="dominant-baseline: middle; font-size: 10.2px;" transform="translate(138.169189453125,145)" y="0" x="0" id="text-entity-commomusers-f3cd74a3-9bd5-4600-90de-46c8334b2f94-attr-6-key" class="er entityLabel"/><rect height="22" width="54.095550537109375" y="156" x="0" class="er attributeBoxOdd"/><text style="dominant-baseline: middle; font-size: 10.2px;" transform="translate(5,167)" y="0" x="0" id="text-entity-commomusers-f3cd74a3-9bd5-4600-90de-46c8334b2f94-attr-7-type" class="er entityLabel">DateTime</text><rect height="22" width="79.07363891601562" y="156" x="54.095550537109375" class="er attributeBoxOdd"/><text style="dominant-baseline: middle; font-size: 10.2px;" transform="translate(59.095550537109375,167)" y="0" x="0" id="text-entity-commomusers-f3cd74a3-9bd5-4600-90de-46c8334b2f94-attr-7-name" class="er entityLabel">updated_at</text><rect height="22" width="22.68768310546875" y="156" x="133.169189453125" class="er attributeBoxOdd"/><text style="dominant-baseline: middle; font-size: 10.2px;" transform="translate(138.169189453125,167)" y="0" x="0" id="text-entity-commomusers-f3cd74a3-9bd5-4600-90de-46c8334b2f94-attr-7-key" class="er entityLabel"/></g><g transform="translate(260.0787658691406,42 )" id="entity-schedules-a21c2d3f-eb70-40a6-9353-eb64d89be3b3"><rect height="112" width="140.07876586914062" y="0" x="0" class="er entityBox"/><text style="dominant-baseline: middle; text-anchor: middle; font-size: 12px;" transform="translate(70.03938293457031,12)" y="0" x="0" id="text-entity-schedules-a21c2d3f-eb70-40a6-9353-eb64d89be3b3" class="er entityLabel">schedules</text><rect height="22" width="54.095550537109375" y="24" x="0" class="er attributeBoxOdd"/><text style="dominant-baseline: middle; font-size: 10.2px;" transform="translate(5,35)" y="0" x="0" id="text-entity-schedules-a21c2d3f-eb70-40a6-9353-eb64d89be3b3-attr-1-type" class="er entityLabel">String</text><rect height="22" width="63.2955322265625" y="24" x="54.095550537109375" class="er attributeBoxOdd"/><text style="dominant-baseline: middle; font-size: 10.2px;" transform="translate(59.095550537109375,35)" y="0" x="0" id="text-entity-schedules-a21c2d3f-eb70-40a6-9353-eb64d89be3b3-attr-1-name" class="er entityLabel">id</text><rect height="22" width="22.68768310546875" y="24" x="117.39108276367188" class="er attributeBoxOdd"/><text style="dominant-baseline: middle; font-size: 10.2px;" transform="translate(122.39108276367188,35)" y="0" x="0" id="text-entity-schedules-a21c2d3f-eb70-40a6-9353-eb64d89be3b3-attr-1-key" class="er entityLabel">PK</text><rect height="22" width="54.095550537109375" y="46" x="0" class="er attributeBoxEven"/><text style="dominant-baseline: middle; font-size: 10.2px;" transform="translate(5,57)" y="0" x="0" id="text-entity-schedules-a21c2d3f-eb70-40a6-9353-eb64d89be3b3-attr-2-type" class="er entityLabel">DateTime</text><rect height="22" width="63.2955322265625" y="46" x="54.095550537109375" class="er attributeBoxEven"/><text style="dominant-baseline: middle; font-size: 10.2px;" transform="translate(59.095550537109375,57)" y="0" x="0" id="text-entity-schedules-a21c2d3f-eb70-40a6-9353-eb64d89be3b3-attr-2-name" class="er entityLabel">date</text><rect height="22" width="22.68768310546875" y="46" x="117.39108276367188" class="er attributeBoxEven"/><text style="dominant-baseline: middle; font-size: 10.2px;" transform="translate(122.39108276367188,57)" y="0" x="0" id="text-entity-schedules-a21c2d3f-eb70-40a6-9353-eb64d89be3b3-attr-2-key" class="er entityLabel"/><rect height="22" width="54.095550537109375" y="68" x="0" class="er attributeBoxOdd"/><text style="dominant-baseline: middle; font-size: 10.2px;" transform="translate(5,79)" y="0" x="0" id="text-entity-schedules-a21c2d3f-eb70-40a6-9353-eb64d89be3b3-attr-3-type" class="er entityLabel">DateTime</text><rect height="22" width="63.2955322265625" y="68" x="54.095550537109375" class="er attributeBoxOdd"/><text style="dominant-baseline: middle; font-size: 10.2px;" transform="translate(59.095550537109375,79)" y="0" x="0" id="text-entity-schedules-a21c2d3f-eb70-40a6-9353-eb64d89be3b3-attr-3-name" class="er entityLabel">created_at</text><rect height="22" width="22.68768310546875" y="68" x="117.39108276367188" class="er attributeBoxOdd"/><text style="dominant-baseline: middle; font-size: 10.2px;" transform="translate(122.39108276367188,79)" y="0" x="0" id="text-entity-schedules-a21c2d3f-eb70-40a6-9353-eb64d89be3b3-attr-3-key" class="er entityLabel"/><rect height="22" width="54.095550537109375" y="90" x="0" class="er attributeBoxEven"/><text style="dominant-baseline: middle; font-size: 10.2px;" transform="translate(5,101)" y="0" x="0" id="text-entity-schedules-a21c2d3f-eb70-40a6-9353-eb64d89be3b3-attr-4-type" class="er entityLabel">DateTime</text><rect height="22" width="63.2955322265625" y="90" x="54.095550537109375" class="er attributeBoxEven"/><text style="dominant-baseline: middle; font-size: 10.2px;" transform="translate(59.095550537109375,101)" y="0" x="0" id="text-entity-schedules-a21c2d3f-eb70-40a6-9353-eb64d89be3b3-attr-4-name" class="er entityLabel">updated_at</text><rect height="22" width="22.68768310546875" y="90" x="117.39108276367188" class="er attributeBoxEven"/><text style="dominant-baseline: middle; font-size: 10.2px;" transform="translate(122.39108276367188,101)" y="0" x="0" id="text-entity-schedules-a21c2d3f-eb70-40a6-9353-eb64d89be3b3-attr-4-key" class="er entityLabel"/></g><g transform="translate(723.2728881835938,554 )" id="entity-service-62b9c24c-4e4d-4208-9eda-58d0f6e84666"><rect height="112" width="149.70492553710938" y="0" x="0" class="er entityBox"/><text style="dominant-baseline: middle; text-anchor: middle; font-size: 12px;" transform="translate(74.85246276855469,12)" y="0" x="0" id="text-entity-service-62b9c24c-4e4d-4208-9eda-58d0f6e84666" class="er entityLabel">service</text><rect height="22" width="54.095550537109375" y="24" x="0" class="er attributeBoxOdd"/><text style="dominant-baseline: middle; font-size: 10.2px;" transform="translate(5,35)" y="0" x="0" id="text-entity-service-62b9c24c-4e4d-4208-9eda-58d0f6e84666-attr-1-type" class="er entityLabel">String</text><rect height="22" width="72.92169189453125" y="24" x="54.095550537109375" class="er attributeBoxOdd"/><text style="dominant-baseline: middle; font-size: 10.2px;" transform="translate(59.095550537109375,35)" y="0" x="0" id="text-entity-service-62b9c24c-4e4d-4208-9eda-58d0f6e84666-attr-1-name" class="er entityLabel">id</text><rect height="22" width="22.68768310546875" y="24" x="127.01724243164062" class="er attributeBoxOdd"/><text style="dominant-baseline: middle; font-size: 10.2px;" transform="translate(132.01724243164062,35)" y="0" x="0" id="text-entity-service-62b9c24c-4e4d-4208-9eda-58d0f6e84666-attr-1-key" class="er entityLabel">PK</text><rect height="22" width="54.095550537109375" y="46" x="0" class="er attributeBoxEven"/><text style="dominant-baseline: middle; font-size: 10.2px;" transform="translate(5,57)" y="0" x="0" id="text-entity-service-62b9c24c-4e4d-4208-9eda-58d0f6e84666-attr-2-type" class="er entityLabel">String</text><rect height="22" width="72.92169189453125" y="46" x="54.095550537109375" class="er attributeBoxEven"/><text style="dominant-baseline: middle; font-size: 10.2px;" transform="translate(59.095550537109375,57)" y="0" x="0" id="text-entity-service-62b9c24c-4e4d-4208-9eda-58d0f6e84666-attr-2-name" class="er entityLabel">service_name</text><rect height="22" width="22.68768310546875" y="46" x="127.01724243164062" class="er attributeBoxEven"/><text style="dominant-baseline: middle; font-size: 10.2px;" transform="translate(132.01724243164062,57)" y="0" x="0" id="text-entity-service-62b9c24c-4e4d-4208-9eda-58d0f6e84666-attr-2-key" class="er entityLabel"/><rect height="22" width="54.095550537109375" y="68" x="0" class="er attributeBoxOdd"/><text style="dominant-baseline: middle; font-size: 10.2px;" transform="translate(5,79)" y="0" x="0" id="text-entity-service-62b9c24c-4e4d-4208-9eda-58d0f6e84666-attr-3-type" class="er entityLabel">DateTime</text><rect height="22" width="72.92169189453125" y="68" x="54.095550537109375" class="er attributeBoxOdd"/><text style="dominant-baseline: middle; font-size: 10.2px;" transform="translate(59.095550537109375,79)" y="0" x="0" id="text-entity-service-62b9c24c-4e4d-4208-9eda-58d0f6e84666-attr-3-name" class="er entityLabel">created_at</text><rect height="22" width="22.68768310546875" y="68" x="127.01724243164062" class="er attributeBoxOdd"/><text style="dominant-baseline: middle; font-size: 10.2px;" transform="translate(132.01724243164062,79)" y="0" x="0" id="text-entity-service-62b9c24c-4e4d-4208-9eda-58d0f6e84666-attr-3-key" class="er entityLabel"/><rect height="22" width="54.095550537109375" y="90" x="0" class="er attributeBoxEven"/><text style="dominant-baseline: middle; font-size: 10.2px;" transform="translate(5,101)" y="0" x="0" id="text-entity-service-62b9c24c-4e4d-4208-9eda-58d0f6e84666-attr-4-type" class="er entityLabel">DateTime</text><rect height="22" width="72.92169189453125" y="90" x="54.095550537109375" class="er attributeBoxEven"/><text style="dominant-baseline: middle; font-size: 10.2px;" transform="translate(59.095550537109375,101)" y="0" x="0" id="text-entity-service-62b9c24c-4e4d-4208-9eda-58d0f6e84666-attr-4-name" class="er entityLabel">updated_at</text><rect height="22" width="22.68768310546875" y="90" x="127.01724243164062" class="er attributeBoxEven"/><text style="dominant-baseline: middle; font-size: 10.2px;" transform="translate(132.01724243164062,101)" y="0" x="0" id="text-entity-service-62b9c24c-4e4d-4208-9eda-58d0f6e84666-attr-4-key" class="er entityLabel"/></g><g transform="translate(399.04298400878906,298 )" id="entity-hoursavailable-04071d53-4e47-4b40-98ef-0c176a7b52fc"><rect height="134" width="140.07876586914062" y="0" x="0" class="er entityBox"/><text style="dominant-baseline: middle; text-anchor: middle; font-size: 12px;" transform="translate(70.03938293457031,12)" y="0" x="0" id="text-entity-hoursavailable-04071d53-4e47-4b40-98ef-0c176a7b52fc" class="er entityLabel">hours_available</text><rect height="22" width="54.095550537109375" y="24" x="0" class="er attributeBoxOdd"/><text style="dominant-baseline: middle; font-size: 10.2px;" transform="translate(5,35)" y="0" x="0" id="text-entity-hoursavailable-04071d53-4e47-4b40-98ef-0c176a7b52fc-attr-1-type" class="er entityLabel">String</text><rect height="22" width="63.2955322265625" y="24" x="54.095550537109375" class="er attributeBoxOdd"/><text style="dominant-baseline: middle; font-size: 10.2px;" transform="translate(59.095550537109375,35)" y="0" x="0" id="text-entity-hoursavailable-04071d53-4e47-4b40-98ef-0c176a7b52fc-attr-1-name" class="er entityLabel">id</text><rect height="22" width="22.68768310546875" y="24" x="117.39108276367188" class="er attributeBoxOdd"/><text style="dominant-baseline: middle; font-size: 10.2px;" transform="translate(122.39108276367188,35)" y="0" x="0" id="text-entity-hoursavailable-04071d53-4e47-4b40-98ef-0c176a7b52fc-attr-1-key" class="er entityLabel">PK</text><rect height="22" width="54.095550537109375" y="46" x="0" class="er attributeBoxEven"/><text style="dominant-baseline: middle; font-size: 10.2px;" transform="translate(5,57)" y="0" x="0" id="text-entity-hoursavailable-04071d53-4e47-4b40-98ef-0c176a7b52fc-attr-2-type" class="er entityLabel">Int</text><rect height="22" width="63.2955322265625" y="46" x="54.095550537109375" class="er attributeBoxEven"/><text style="dominant-baseline: middle; font-size: 10.2px;" transform="translate(59.095550537109375,57)" y="0" x="0" id="text-entity-hoursavailable-04071d53-4e47-4b40-98ef-0c176a7b52fc-attr-2-name" class="er entityLabel">hour</text><rect height="22" width="22.68768310546875" y="46" x="117.39108276367188" class="er attributeBoxEven"/><text style="dominant-baseline: middle; font-size: 10.2px;" transform="translate(122.39108276367188,57)" y="0" x="0" id="text-entity-hoursavailable-04071d53-4e47-4b40-98ef-0c176a7b52fc-attr-2-key" class="er entityLabel"/><rect height="22" width="54.095550537109375" y="68" x="0" class="er attributeBoxOdd"/><text style="dominant-baseline: middle; font-size: 10.2px;" transform="translate(5,79)" y="0" x="0" id="text-entity-hoursavailable-04071d53-4e47-4b40-98ef-0c176a7b52fc-attr-3-type" class="er entityLabel">Int</text><rect height="22" width="63.2955322265625" y="68" x="54.095550537109375" class="er attributeBoxOdd"/><text style="dominant-baseline: middle; font-size: 10.2px;" transform="translate(59.095550537109375,79)" y="0" x="0" id="text-entity-hoursavailable-04071d53-4e47-4b40-98ef-0c176a7b52fc-attr-3-name" class="er entityLabel">minutes</text><rect height="22" width="22.68768310546875" y="68" x="117.39108276367188" class="er attributeBoxOdd"/><text style="dominant-baseline: middle; font-size: 10.2px;" transform="translate(122.39108276367188,79)" y="0" x="0" id="text-entity-hoursavailable-04071d53-4e47-4b40-98ef-0c176a7b52fc-attr-3-key" class="er entityLabel"/><rect height="22" width="54.095550537109375" y="90" x="0" class="er attributeBoxEven"/><text style="dominant-baseline: middle; font-size: 10.2px;" transform="translate(5,101)" y="0" x="0" id="text-entity-hoursavailable-04071d53-4e47-4b40-98ef-0c176a7b52fc-attr-4-type" class="er entityLabel">DateTime</text><rect height="22" width="63.2955322265625" y="90" x="54.095550537109375" class="er attributeBoxEven"/><text style="dominant-baseline: middle; font-size: 10.2px;" transform="translate(59.095550537109375,101)" y="0" x="0" id="text-entity-hoursavailable-04071d53-4e47-4b40-98ef-0c176a7b52fc-attr-4-name" class="er entityLabel">created_at</text><rect height="22" width="22.68768310546875" y="90" x="117.39108276367188" class="er attributeBoxEven"/><text style="dominant-baseline: middle; font-size: 10.2px;" transform="translate(122.39108276367188,101)" y="0" x="0" id="text-entity-hoursavailable-04071d53-4e47-4b40-98ef-0c176a7b52fc-attr-4-key" class="er entityLabel"/><rect height="22" width="54.095550537109375" y="112" x="0" class="er attributeBoxOdd"/><text style="dominant-baseline: middle; font-size: 10.2px;" transform="translate(5,123)" y="0" x="0" id="text-entity-hoursavailable-04071d53-4e47-4b40-98ef-0c176a7b52fc-attr-5-type" class="er entityLabel">DateTime</text><rect height="22" width="63.2955322265625" y="112" x="54.095550537109375" class="er attributeBoxOdd"/><text style="dominant-baseline: middle; font-size: 10.2px;" transform="translate(59.095550537109375,123)" y="0" x="0" id="text-entity-hoursavailable-04071d53-4e47-4b40-98ef-0c176a7b52fc-attr-5-name" class="er entityLabel">updated_at</text><rect height="22" width="22.68768310546875" y="112" x="117.39108276367188" class="er attributeBoxOdd"/><text style="dominant-baseline: middle; font-size: 10.2px;" transform="translate(122.39108276367188,123)" y="0" x="0" id="text-entity-hoursavailable-04071d53-4e47-4b40-98ef-0c176a7b52fc-attr-5-key" class="er entityLabel"/></g><g transform="translate(639.1217498779297,309 )" id="entity-daysdisabled-a2b4ff8c-72f2-42b2-9e58-3a3395fcec27"><rect height="112" width="140.07876586914062" y="0" x="0" class="er entityBox"/><text style="dominant-baseline: middle; text-anchor: middle; font-size: 12px;" transform="translate(70.03938293457031,12)" y="0" x="0" id="text-entity-daysdisabled-a2b4ff8c-72f2-42b2-9e58-3a3395fcec27" class="er entityLabel">days_disabled</text><rect height="22" width="54.095550537109375" y="24" x="0" class="er attributeBoxOdd"/><text style="dominant-baseline: middle; font-size: 10.2px;" transform="translate(5,35)" y="0" x="0" id="text-entity-daysdisabled-a2b4ff8c-72f2-42b2-9e58-3a3395fcec27-attr-1-type" class="er entityLabel">String</text><rect height="22" width="63.2955322265625" y="24" x="54.095550537109375" class="er attributeBoxOdd"/><text style="dominant-baseline: middle; font-size: 10.2px;" transform="translate(59.095550537109375,35)" y="0" x="0" id="text-entity-daysdisabled-a2b4ff8c-72f2-42b2-9e58-3a3395fcec27-attr-1-name" class="er entityLabel">id</text><rect height="22" width="22.68768310546875" y="24" x="117.39108276367188" class="er attributeBoxOdd"/><text style="dominant-baseline: middle; font-size: 10.2px;" transform="translate(122.39108276367188,35)" y="0" x="0" id="text-entity-daysdisabled-a2b4ff8c-72f2-42b2-9e58-3a3395fcec27-attr-1-key" class="er entityLabel">PK</text><rect height="22" width="54.095550537109375" y="46" x="0" class="er attributeBoxEven"/><text style="dominant-baseline: middle; font-size: 10.2px;" transform="translate(5,57)" y="0" x="0" id="text-entity-daysdisabled-a2b4ff8c-72f2-42b2-9e58-3a3395fcec27-attr-2-type" class="er entityLabel">Int</text><rect height="22" width="63.2955322265625" y="46" x="54.095550537109375" class="er attributeBoxEven"/><text style="dominant-baseline: middle; font-size: 10.2px;" transform="translate(59.095550537109375,57)" y="0" x="0" id="text-entity-daysdisabled-a2b4ff8c-72f2-42b2-9e58-3a3395fcec27-attr-2-name" class="er entityLabel">day</text><rect height="22" width="22.68768310546875" y="46" x="117.39108276367188" class="er attributeBoxEven"/><text style="dominant-baseline: middle; font-size: 10.2px;" transform="translate(122.39108276367188,57)" y="0" x="0" id="text-entity-daysdisabled-a2b4ff8c-72f2-42b2-9e58-3a3395fcec27-attr-2-key" class="er entityLabel"/><rect height="22" width="54.095550537109375" y="68" x="0" class="er attributeBoxOdd"/><text style="dominant-baseline: middle; font-size: 10.2px;" transform="translate(5,79)" y="0" x="0" id="text-entity-daysdisabled-a2b4ff8c-72f2-42b2-9e58-3a3395fcec27-attr-3-type" class="er entityLabel">DateTime</text><rect height="22" width="63.2955322265625" y="68" x="54.095550537109375" class="er attributeBoxOdd"/><text style="dominant-baseline: middle; font-size: 10.2px;" transform="translate(59.095550537109375,79)" y="0" x="0" id="text-entity-daysdisabled-a2b4ff8c-72f2-42b2-9e58-3a3395fcec27-attr-3-name" class="er entityLabel">created_at</text><rect height="22" width="22.68768310546875" y="68" x="117.39108276367188" class="er attributeBoxOdd"/><text style="dominant-baseline: middle; font-size: 10.2px;" transform="translate(122.39108276367188,79)" y="0" x="0" id="text-entity-daysdisabled-a2b4ff8c-72f2-42b2-9e58-3a3395fcec27-attr-3-key" class="er entityLabel"/><rect height="22" width="54.095550537109375" y="90" x="0" class="er attributeBoxEven"/><text style="dominant-baseline: middle; font-size: 10.2px;" transform="translate(5,101)" y="0" x="0" id="text-entity-daysdisabled-a2b4ff8c-72f2-42b2-9e58-3a3395fcec27-attr-4-type" class="er entityLabel">DateTime</text><rect height="22" width="63.2955322265625" y="90" x="54.095550537109375" class="er attributeBoxEven"/><text style="dominant-baseline: middle; font-size: 10.2px;" transform="translate(59.095550537109375,101)" y="0" x="0" id="text-entity-daysdisabled-a2b4ff8c-72f2-42b2-9e58-3a3395fcec27-attr-4-name" class="er entityLabel">updated_at</text><rect height="22" width="22.68768310546875" y="90" x="117.39108276367188" class="er attributeBoxEven"/><text style="dominant-baseline: middle; font-size: 10.2px;" transform="translate(122.39108276367188,101)" y="0" x="0" id="text-entity-daysdisabled-a2b4ff8c-72f2-42b2-9e58-3a3395fcec27-attr-4-key" class="er entityLabel"/></g><g transform="translate(879.2005157470703,309 )" id="entity-datesdisabled-592bcd8a-87e2-4db6-9e50-9f7f48c83006"><rect height="112" width="140.07876586914062" y="0" x="0" class="er entityBox"/><text style="dominant-baseline: middle; text-anchor: middle; font-size: 12px;" transform="translate(70.03938293457031,12)" y="0" x="0" id="text-entity-datesdisabled-592bcd8a-87e2-4db6-9e50-9f7f48c83006" class="er entityLabel">dates_disabled</text><rect height="22" width="54.095550537109375" y="24" x="0" class="er attributeBoxOdd"/><text style="dominant-baseline: middle; font-size: 10.2px;" transform="translate(5,35)" y="0" x="0" id="text-entity-datesdisabled-592bcd8a-87e2-4db6-9e50-9f7f48c83006-attr-1-type" class="er entityLabel">String</text><rect height="22" width="63.2955322265625" y="24" x="54.095550537109375" class="er attributeBoxOdd"/><text style="dominant-baseline: middle; font-size: 10.2px;" transform="translate(59.095550537109375,35)" y="0" x="0" id="text-entity-datesdisabled-592bcd8a-87e2-4db6-9e50-9f7f48c83006-attr-1-name" class="er entityLabel">id</text><rect height="22" width="22.68768310546875" y="24" x="117.39108276367188" class="er attributeBoxOdd"/><text style="dominant-baseline: middle; font-size: 10.2px;" transform="translate(122.39108276367188,35)" y="0" x="0" id="text-entity-datesdisabled-592bcd8a-87e2-4db6-9e50-9f7f48c83006-attr-1-key" class="er entityLabel">PK</text><rect height="22" width="54.095550537109375" y="46" x="0" class="er attributeBoxEven"/><text style="dominant-baseline: middle; font-size: 10.2px;" transform="translate(5,57)" y="0" x="0" id="text-entity-datesdisabled-592bcd8a-87e2-4db6-9e50-9f7f48c83006-attr-2-type" class="er entityLabel">DateTime</text><rect height="22" width="63.2955322265625" y="46" x="54.095550537109375" class="er attributeBoxEven"/><text style="dominant-baseline: middle; font-size: 10.2px;" transform="translate(59.095550537109375,57)" y="0" x="0" id="text-entity-datesdisabled-592bcd8a-87e2-4db6-9e50-9f7f48c83006-attr-2-name" class="er entityLabel">date</text><rect height="22" width="22.68768310546875" y="46" x="117.39108276367188" class="er attributeBoxEven"/><text style="dominant-baseline: middle; font-size: 10.2px;" transform="translate(122.39108276367188,57)" y="0" x="0" id="text-entity-datesdisabled-592bcd8a-87e2-4db6-9e50-9f7f48c83006-attr-2-key" class="er entityLabel"/><rect height="22" width="54.095550537109375" y="68" x="0" class="er attributeBoxOdd"/><text style="dominant-baseline: middle; font-size: 10.2px;" transform="translate(5,79)" y="0" x="0" id="text-entity-datesdisabled-592bcd8a-87e2-4db6-9e50-9f7f48c83006-attr-3-type" class="er entityLabel">DateTime</text><rect height="22" width="63.2955322265625" y="68" x="54.095550537109375" class="er attributeBoxOdd"/><text style="dominant-baseline: middle; font-size: 10.2px;" transform="translate(59.095550537109375,79)" y="0" x="0" id="text-entity-datesdisabled-592bcd8a-87e2-4db6-9e50-9f7f48c83006-attr-3-name" class="er entityLabel">created_at</text><rect height="22" width="22.68768310546875" y="68" x="117.39108276367188" class="er attributeBoxOdd"/><text style="dominant-baseline: middle; font-size: 10.2px;" transform="translate(122.39108276367188,79)" y="0" x="0" id="text-entity-datesdisabled-592bcd8a-87e2-4db6-9e50-9f7f48c83006-attr-3-key" class="er entityLabel"/><rect height="22" width="54.095550537109375" y="90" x="0" class="er attributeBoxEven"/><text style="dominant-baseline: middle; font-size: 10.2px;" transform="translate(5,101)" y="0" x="0" id="text-entity-datesdisabled-592bcd8a-87e2-4db6-9e50-9f7f48c83006-attr-4-type" class="er entityLabel">DateTime</text><rect height="22" width="63.2955322265625" y="90" x="54.095550537109375" class="er attributeBoxEven"/><text style="dominant-baseline: middle; font-size: 10.2px;" transform="translate(59.095550537109375,101)" y="0" x="0" id="text-entity-datesdisabled-592bcd8a-87e2-4db6-9e50-9f7f48c83006-attr-4-name" class="er entityLabel">updated_at</text><rect height="22" width="22.68768310546875" y="90" x="117.39108276367188" class="er attributeBoxEven"/><text style="dominant-baseline: middle; font-size: 10.2px;" transform="translate(122.39108276367188,101)" y="0" x="0" id="text-entity-datesdisabled-592bcd8a-87e2-4db6-9e50-9f7f48c83006-attr-4-key" class="er entityLabel"/></g><g transform="translate(1119.279281616211,298 )" id="entity-intervalavailable-c808b035-cc83-47a0-a798-a09ea4c28060"><rect height="134" width="140.07876586914062" y="0" x="0" class="er entityBox"/><text style="dominant-baseline: middle; text-anchor: middle; font-size: 12px;" transform="translate(70.03938293457031,12)" y="0" x="0" id="text-entity-intervalavailable-c808b035-cc83-47a0-a798-a09ea4c28060" class="er entityLabel">interval_available</text><rect height="22" width="54.095550537109375" y="24" x="0" class="er attributeBoxOdd"/><text style="dominant-baseline: middle; font-size: 10.2px;" transform="translate(5,35)" y="0" x="0" id="text-entity-intervalavailable-c808b035-cc83-47a0-a798-a09ea4c28060-attr-1-type" class="er entityLabel">String</text><rect height="22" width="63.2955322265625" y="24" x="54.095550537109375" class="er attributeBoxOdd"/><text style="dominant-baseline: middle; font-size: 10.2px;" transform="translate(59.095550537109375,35)" y="0" x="0" id="text-entity-intervalavailable-c808b035-cc83-47a0-a798-a09ea4c28060-attr-1-name" class="er entityLabel">id</text><rect height="22" width="22.68768310546875" y="24" x="117.39108276367188" class="er attributeBoxOdd"/><text style="dominant-baseline: middle; font-size: 10.2px;" transform="translate(122.39108276367188,35)" y="0" x="0" id="text-entity-intervalavailable-c808b035-cc83-47a0-a798-a09ea4c28060-attr-1-key" class="er entityLabel">PK</text><rect height="22" width="54.095550537109375" y="46" x="0" class="er attributeBoxEven"/><text style="dominant-baseline: middle; font-size: 10.2px;" transform="translate(5,57)" y="0" x="0" id="text-entity-intervalavailable-c808b035-cc83-47a0-a798-a09ea4c28060-attr-2-type" class="er entityLabel">DateTime</text><rect height="22" width="63.2955322265625" y="46" x="54.095550537109375" class="er attributeBoxEven"/><text style="dominant-baseline: middle; font-size: 10.2px;" transform="translate(59.095550537109375,57)" y="0" x="0" id="text-entity-intervalavailable-c808b035-cc83-47a0-a798-a09ea4c28060-attr-2-name" class="er entityLabel">intial_date</text><rect height="22" width="22.68768310546875" y="46" x="117.39108276367188" class="er attributeBoxEven"/><text style="dominant-baseline: middle; font-size: 10.2px;" transform="translate(122.39108276367188,57)" y="0" x="0" id="text-entity-intervalavailable-c808b035-cc83-47a0-a798-a09ea4c28060-attr-2-key" class="er entityLabel"/><rect height="22" width="54.095550537109375" y="68" x="0" class="er attributeBoxOdd"/><text style="dominant-baseline: middle; font-size: 10.2px;" transform="translate(5,79)" y="0" x="0" id="text-entity-intervalavailable-c808b035-cc83-47a0-a798-a09ea4c28060-attr-3-type" class="er entityLabel">DateTime</text><rect height="22" width="63.2955322265625" y="68" x="54.095550537109375" class="er attributeBoxOdd"/><text style="dominant-baseline: middle; font-size: 10.2px;" transform="translate(59.095550537109375,79)" y="0" x="0" id="text-entity-intervalavailable-c808b035-cc83-47a0-a798-a09ea4c28060-attr-3-name" class="er entityLabel">final_date</text><rect height="22" width="22.68768310546875" y="68" x="117.39108276367188" class="er attributeBoxOdd"/><text style="dominant-baseline: middle; font-size: 10.2px;" transform="translate(122.39108276367188,79)" y="0" x="0" id="text-entity-intervalavailable-c808b035-cc83-47a0-a798-a09ea4c28060-attr-3-key" class="er entityLabel"/><rect height="22" width="54.095550537109375" y="90" x="0" class="er attributeBoxEven"/><text style="dominant-baseline: middle; font-size: 10.2px;" transform="translate(5,101)" y="0" x="0" id="text-entity-intervalavailable-c808b035-cc83-47a0-a798-a09ea4c28060-attr-4-type" class="er entityLabel">DateTime</text><rect height="22" width="63.2955322265625" y="90" x="54.095550537109375" class="er attributeBoxEven"/><text style="dominant-baseline: middle; font-size: 10.2px;" transform="translate(59.095550537109375,101)" y="0" x="0" id="text-entity-intervalavailable-c808b035-cc83-47a0-a798-a09ea4c28060-attr-4-name" class="er entityLabel">created_at</text><rect height="22" width="22.68768310546875" y="90" x="117.39108276367188" class="er attributeBoxEven"/><text style="dominant-baseline: middle; font-size: 10.2px;" transform="translate(122.39108276367188,101)" y="0" x="0" id="text-entity-intervalavailable-c808b035-cc83-47a0-a798-a09ea4c28060-attr-4-key" class="er entityLabel"/><rect height="22" width="54.095550537109375" y="112" x="0" class="er attributeBoxOdd"/><text style="dominant-baseline: middle; font-size: 10.2px;" transform="translate(5,123)" y="0" x="0" id="text-entity-intervalavailable-c808b035-cc83-47a0-a798-a09ea4c28060-attr-5-type" class="er entityLabel">DateTime</text><rect height="22" width="63.2955322265625" y="112" x="54.095550537109375" class="er attributeBoxOdd"/><text style="dominant-baseline: middle; font-size: 10.2px;" transform="translate(59.095550537109375,123)" y="0" x="0" id="text-entity-intervalavailable-c808b035-cc83-47a0-a798-a09ea4c28060-attr-5-name" class="er entityLabel">updated_at</text><rect height="22" width="22.68768310546875" y="112" x="117.39108276367188" class="er attributeBoxOdd"/><text style="dominant-baseline: middle; font-size: 10.2px;" transform="translate(122.39108276367188,123)" y="0" x="0" id="text-entity-intervalavailable-c808b035-cc83-47a0-a798-a09ea4c28060-attr-5-key" class="er entityLabel"/></g><rect height="14" width="23.958984375" y="188.70570373535156" x="162.4558868408203" class="er relationshipLabelBox"/><text style="text-anchor: middle; dominant-baseline: middle; font-size: 12px;" y="195.70570373535156" x="174.4353790283203" id="rel1" class="er relationshipLabel">user</text><rect height="14" width="38.306640625" y="487.9442138671875" x="348.93280029296875" class="er relationshipLabelBox"/><text style="text-anchor: middle; dominant-baseline: middle; font-size: 12px;" y="494.9442138671875" x="368.08612060546875" id="rel2" class="er relationshipLabel">service</text><rect height="14" width="25.552734375" y="209.01881408691406" x="437.1562805175781" class="er relationshipLabelBox"/><text style="text-anchor: middle; dominant-baseline: middle; font-size: 12px;" y="216.01881408691406" x="449.9326477050781" id="rel3" class="er relationshipLabel">hour</text><rect height="14" width="38.306640625" y="527.5653076171875" x="553.802490234375" class="er relationshipLabelBox"/><text style="text-anchor: middle; dominant-baseline: middle; font-size: 12px;" y="534.5653076171875" x="572.955810546875" id="rel4" class="er relationshipLabel">service</text><rect height="14" width="38.306640625" y="485.7138671875" x="695.3590698242188" class="er relationshipLabelBox"/><text style="text-anchor: middle; dominant-baseline: middle; font-size: 12px;" y="492.7138671875" x="714.5123901367188" id="rel5" class="er relationshipLabel">service</text><rect height="14" width="38.306640625" y="495.10089111328125" x="915.5986328125" class="er relationshipLabelBox"/><text style="text-anchor: middle; dominant-baseline: middle; font-size: 12px;" y="502.10089111328125" x="934.751953125" id="rel6" class="er relationshipLabel">service</text><rect height="14" width="38.306640625" y="531.2870483398438" x="1034.3233642578125" class="er relationshipLabelBox"/><text style="text-anchor: middle; dominant-baseline: middle; font-size: 12px;" y="538.2870483398438" x="1053.4766845703125" id="rel7" class="er relationshipLabel">service</text></svg>